<?xml version="1.0" encoding="UTF-8" standalone="no"?>
<!-- Created with Inkscape (http://www.inkscape.org/) -->

<svg
   xmlns:dc="http://purl.org/dc/elements/1.1/"
   xmlns:cc="http://creativecommons.org/ns#"
   xmlns:rdf="http://www.w3.org/1999/02/22-rdf-syntax-ns#"
   xmlns:svg="http://www.w3.org/2000/svg"
   xmlns="http://www.w3.org/2000/svg"
   xmlns:sodipodi="http://sodipodi.sourceforge.net/DTD/sodipodi-0.dtd"
   xmlns:inkscape="http://www.inkscape.org/namespaces/inkscape"
   width="450"
   height="95"
   viewBox="0 0 450 95"
   id="svg2"
   version="1.1"
   inkscape:version="0.91 r13725"
   sodipodi:docname="fabtab.svg">
  <defs
     id="defs4">
    <filter
       style="color-interpolation-filters:sRGB"
       inkscape:label="Drop Shadow"
       id="filter4356">
      <feFlood
         flood-opacity="0.501961"
         flood-color="rgb(0,0,0)"
         result="flood"
         id="feFlood4358" />
      <feComposite
         in="flood"
         in2="SourceGraphic"
         operator="in"
         result="composite1"
         id="feComposite4360" />
      <feGaussianBlur
         in="composite1"
         stdDeviation="0.5"
         result="blur"
         id="feGaussianBlur4362" />
      <feOffset
         dx="1"
         dy="1"
         result="offset"
         id="feOffset4364" />
      <feComposite
         in="SourceGraphic"
         in2="offset"
         operator="over"
         result="composite2"
         id="feComposite4366" />
    </filter>
    <filter
       style="color-interpolation-filters:sRGB"
       inkscape:label="Drop Shadow"
       id="filter4356-8">
      <feFlood
         flood-opacity="0.501961"
         flood-color="rgb(0,0,0)"
         result="flood"
         id="feFlood4358-0" />
      <feComposite
         in="flood"
         in2="SourceGraphic"
         operator="in"
         result="composite1"
         id="feComposite4360-9" />
      <feGaussianBlur
         in="composite1"
         stdDeviation="0.5"
         result="blur"
         id="feGaussianBlur4362-2" />
      <feOffset
         dx="1"
         dy="1"
         result="offset"
         id="feOffset4364-1" />
      <feComposite
         in="SourceGraphic"
         in2="offset"
         operator="over"
         result="composite2"
         id="feComposite4366-7" />
    </filter>
  </defs>
  <sodipodi:namedview
     id="base"
     pagecolor="#ffffff"
     bordercolor="#666666"
     borderopacity="1.0"
     inkscape:pageopacity="0.0"
     inkscape:pageshadow="2"
     inkscape:zoom="1.4"
     inkscape:cx="184.07242"
     inkscape:cy="57.1224"
     inkscape:document-units="px"
     inkscape:current-layer="layer2"
     showgrid="false"
     borderlayer="true"
     inkscape:showpageshadow="false"
     units="px"
     inkscape:window-width="1920"
     inkscape:window-height="1027"
     inkscape:window-x="1272"
     inkscape:window-y="-8"
     inkscape:window-maximized="1" />
  <metadata
     id="metadata7">
    <rdf:RDF>
      <cc:Work
         rdf:about="">
        <dc:format>image/svg+xml</dc:format>
        <dc:type
           rdf:resource="http://purl.org/dc/dcmitype/StillImage" />
        <dc:title></dc:title>
      </cc:Work>
    </rdf:RDF>
  </metadata>
  <g
     inkscape:groupmode="layer"
     id="layer2"
     inkscape:label="Layer 2"
     style="display:inline"
     transform="translate(0,-33)">
    <path
       style="fill:#41a8f7;fill-opacity:1"
       d="m 9.5995299,40.109294 62.6519091,0 0.22127,22.857143 -21.083831,0.165608 -1.288829,30.226445 -11.444016,1.083915 -1.004752,15.407665 -27.337415,0.35715 z"
       id="rect4156"
       inkscape:connector-curvature="0"
       sodipodi:nodetypes="ccccccccc" />
    <path
       style="fill:#ef801d;fill-opacity:1"
       d="m 228.46665,39.924937 63.7351,0.252538 0.50507,22.24566 -15.58334,0.526038 -1.3682,51.557177 -29.02743,-1.50171 -0.76557,-49.649111 -17.24309,0.330297 z"
       id="rect4156-4-3"
       inkscape:connector-curvature="0"
       sodipodi:nodetypes="ccccccccc" />
    <path
       style="display:inline;fill:#41a8f7;fill-opacity:1"
       d="m 82.962289,51.224049 13.04405,-10.65195 49.429291,-0.06233 -0.13588,71.526491 -62.694561,-0.35714 z"
       id="rect4156-0"
       inkscape:connector-curvature="0"
       sodipodi:nodetypes="cccccc" />
    <path
       style="display:inline;fill:#41a8f7;fill-opacity:1"
       d="m 156.172,41.016489 48.72333,-0.178571 13.74147,11.106339 0.52027,44.298201 -16.00475,16.121952 -46.62313,-1.42857 z"
       id="rect4156-3"
       inkscape:connector-curvature="0"
       sodipodi:nodetypes="ccccccc" />
    <path
       style="display:inline;fill:#ef801d;fill-opacity:1"
       d="m 316.63508,40.706742 48.83535,-0.252539 0.72613,71.550957 -62.8755,1.88219 -0.82811,-62.551702 z"
       id="rect4156-4-3-4"
       inkscape:connector-curvature="0"
       sodipodi:nodetypes="cccccc" />
    <path
       style="display:inline;fill:#ef801d;fill-opacity:1"
       d="m 424.73713,39.513111 15.10123,12.240483 -0.61106,47.611054 -13.41601,14.224802 -49.49098,-3.42112 -0.57557,-70.127838 z"
       id="rect4156-4-3-4-6"
       inkscape:connector-curvature="0"
       sodipodi:nodetypes="ccccccc" />
    <g
       transform="matrix(1.5434951,0,0,0.92074154,-32.465782,22.218531)"
       style="font-style:normal;font-weight:normal;font-size:89.53432465px;line-height:125%;font-family:sans-serif;letter-spacing:0px;word-spacing:0px;display:inline;fill:#000000;fill-opacity:1;stroke:#ffffff;stroke-width:5.03303289;stroke-linecap:butt;stroke-linejoin:round;stroke-miterlimit:4;stroke-dasharray:none;stroke-opacity:1;filter:url(#filter4356-8)"
       id="text4205">
      <path
         d="m 47.65023,109.45889 -22.20871,0 0.04372,-91.589067 43.936522,0 0,33.881398 -13.596277,0 0,28.591527 -8.218971,0 0.04372,29.116142 z m 18.79871,-73.883304 0,-14.864097 -37.947164,0 0,72.571767 16.044481,0 0,-28.635246 8.218971,0 0,-14.732943 -8.218971,0 0,-14.339481 21.902683,0 z"
         style="font-style:normal;font-variant:normal;font-weight:normal;font-stretch:normal;font-family:Blockt;-inkscape-font-specification:Blockt;stroke:#ffffff;stroke-width:5.03303289;stroke-linejoin:round;stroke-miterlimit:4;stroke-dasharray:none;stroke-opacity:1"
         id="path4763"
         inkscape:connector-curvature="0" />
      <path
         d="m 82.537139,17.869823 34.406011,0 0,91.589067 -43.93652,0 0,-77.99279 9.530509,-13.596277 z m 9.443073,26.318195 5.945639,-8.612432 0,15.651019 -5.945639,0 0,-7.038587 z m 5.945639,49.095238 15.957049,0 0,-72.571767 -29.640762,0 -8.262689,11.847559 0,60.724208 16.000763,0 0,-27.323708 5.945639,0 0,27.323708 z"
         style="font-style:normal;font-variant:normal;font-weight:normal;font-stretch:normal;font-family:Blockt;-inkscape-font-specification:Blockt;stroke:#ffffff;stroke-width:5.03303289;stroke-linejoin:round;stroke-miterlimit:4;stroke-dasharray:none;stroke-opacity:1"
         id="path4765"
         inkscape:connector-curvature="0" />
      <path
         d="m 145.44725,66.003266 0,12.634483 -5.94564,0 0,-12.634483 5.94564,0 z m 5.50846,27.27999 10.40487,-14.776661 0,-22.514735 -6.86372,0 6.86372,-9.880253 0,-13.552559 -8.26269,-11.847559 -29.64076,0 0,72.571767 27.49858,0 z m -11.4541,-41.794343 0,-15.913327 5.94564,0 0,7.432048 -5.94564,8.481279 z m -19.10474,57.969977 0,-91.589067 34.40602,0 9.5305,13.596277 0,64.396514 -9.48679,13.596276 -34.44973,0 z"
         style="font-style:normal;font-variant:normal;font-weight:normal;font-stretch:normal;font-family:Blockt;-inkscape-font-specification:Blockt;stroke:#ffffff;stroke-width:5.03303289;stroke-linejoin:round;stroke-miterlimit:4;stroke-dasharray:none;stroke-opacity:1"
         id="path4767"
         inkscape:connector-curvature="0" />
      <path
         d="m 179.24121,109.45889 0,-56.439849 -11.27923,0 0,-35.149218 43.84909,0 0,35.149218 -10.75461,0 0,56.439849 -21.81525,0 z m 18.92986,-16.175634 0,-58.101132 11.27923,0 0,-14.470635 -38.60293,0 0,14.470635 11.27922,0 0,58.101132 16.04448,0 z"
         style="font-style:normal;font-variant:normal;font-weight:normal;font-stretch:normal;font-family:Blockt;-inkscape-font-specification:Blockt;stroke:#ffffff;stroke-width:5.03303289;stroke-linejoin:round;stroke-miterlimit:4;stroke-dasharray:none;stroke-opacity:1"
         id="path4769"
         inkscape:connector-curvature="0" />
      <path
         d="m 224.88274,17.869823 34.40601,0 0,91.589067 -43.93652,0 0,-77.99279 9.53051,-13.596277 z m 9.44307,26.318195 5.94564,-8.612432 0,15.651019 -5.94564,0 0,-7.038587 z m 5.94564,49.095238 15.95704,0 0,-72.571767 -29.64076,0 -8.26268,11.847559 0,60.724208 16.00076,0 0,-27.323708 5.94564,0 0,27.323708 z"
         style="font-style:normal;font-variant:normal;font-weight:normal;font-stretch:normal;font-family:Blockt;-inkscape-font-specification:Blockt;stroke:#ffffff;stroke-width:5.03303289;stroke-linejoin:round;stroke-miterlimit:4;stroke-dasharray:none;stroke-opacity:1"
         id="path4771"
         inkscape:connector-curvature="0" />
      <path
         d="m 287.79283,66.003266 0,12.634483 -5.94564,0 0,-12.634483 5.94564,0 z m 5.50846,27.27999 10.40487,-14.776661 0,-22.514735 -6.86372,0 6.86372,-9.880253 0,-13.552559 -8.26269,-11.847559 -29.64076,0 0,72.571767 27.49858,0 z m -11.4541,-41.794343 0,-15.913327 5.94564,0 0,7.432048 -5.94564,8.481279 z m -19.10474,57.969977 0,-91.589067 34.40602,0 9.53051,13.596277 0,64.396514 -9.4868,13.596276 -34.44973,0 z"
         style="font-style:normal;font-variant:normal;font-weight:normal;font-stretch:normal;font-family:Blockt;-inkscape-font-specification:Blockt;stroke:#ffffff;stroke-width:5.03303289;stroke-linejoin:round;stroke-miterlimit:4;stroke-dasharray:none;stroke-opacity:1"
         id="path4773"
         inkscape:connector-curvature="0" />
    </g>
    <g
       transform="matrix(1.5434951,0,0,0.92074154,-32.465783,22.218529)"
       style="font-style:normal;font-weight:normal;font-size:89.53432465px;line-height:125%;font-family:sans-serif;letter-spacing:0px;word-spacing:0px;display:inline;fill:#000000;fill-opacity:1;stroke:#ffffff;stroke-width:0;stroke-linecap:butt;stroke-linejoin:round;stroke-miterlimit:4;stroke-dasharray:none;stroke-opacity:1"
       id="text3347">
      <path
         d="m 47.65023,109.45889 -22.20871,0 0.04372,-91.589067 43.936522,0 0,33.881398 -13.596277,0 0,28.591527 -8.218971,0 0.04372,29.116142 z m 18.79871,-73.883304 0,-14.864097 -37.947164,0 0,72.571767 16.044481,0 0,-28.635246 8.218971,0 0,-14.732943 -8.218971,0 0,-14.339481 21.902683,0 z"
         style="font-style:normal;font-variant:normal;font-weight:normal;font-stretch:normal;font-family:Blockt;-inkscape-font-specification:Blockt;stroke:#ffffff;stroke-width:0;stroke-linejoin:round;stroke-miterlimit:4;stroke-dasharray:none;stroke-opacity:1"
         id="path4750"
         inkscape:connector-curvature="0" />
      <path
         d="m 82.537139,17.869823 34.406011,0 0,91.589067 -43.93652,0 0,-77.99279 9.530509,-13.596277 z m 9.443073,26.318195 5.945639,-8.612432 0,15.651019 -5.945639,0 0,-7.038587 z m 5.945639,49.095238 15.957049,0 0,-72.571767 -29.640762,0 -8.262689,11.847559 0,60.724208 16.000763,0 0,-27.323708 5.945639,0 0,27.323708 z"
         style="font-style:normal;font-variant:normal;font-weight:normal;font-stretch:normal;font-family:Blockt;-inkscape-font-specification:Blockt;stroke:#ffffff;stroke-width:0;stroke-linejoin:round;stroke-miterlimit:4;stroke-dasharray:none;stroke-opacity:1"
         id="path4752"
         inkscape:connector-curvature="0" />
      <path
         d="m 145.44725,66.003266 0,12.634483 -5.94564,0 0,-12.634483 5.94564,0 z m 5.50846,27.27999 10.40487,-14.776661 0,-22.514735 -6.86372,0 6.86372,-9.880253 0,-13.552559 -8.26269,-11.847559 -29.64076,0 0,72.571767 27.49858,0 z m -11.4541,-41.794343 0,-15.913327 5.94564,0 0,7.432048 -5.94564,8.481279 z m -19.10474,57.969977 0,-91.589067 34.40602,0 9.5305,13.596277 0,64.396514 -9.48679,13.596276 -34.44973,0 z"
         style="font-style:normal;font-variant:normal;font-weight:normal;font-stretch:normal;font-family:Blockt;-inkscape-font-specification:Blockt;stroke:#ffffff;stroke-width:0;stroke-linejoin:round;stroke-miterlimit:4;stroke-dasharray:none;stroke-opacity:1"
         id="path4754"
         inkscape:connector-curvature="0" />
      <path
         d="m 179.24121,109.45889 0,-56.439849 -11.27923,0 0,-35.149218 43.84909,0 0,35.149218 -10.75461,0 0,56.439849 -21.81525,0 z m 18.92986,-16.175634 0,-58.101132 11.27923,0 0,-14.470635 -38.60293,0 0,14.470635 11.27922,0 0,58.101132 16.04448,0 z"
         style="font-style:normal;font-variant:normal;font-weight:normal;font-stretch:normal;font-family:Blockt;-inkscape-font-specification:Blockt;stroke:#ffffff;stroke-width:0;stroke-linejoin:round;stroke-miterlimit:4;stroke-dasharray:none;stroke-opacity:1"
         id="path4756"
         inkscape:connector-curvature="0" />
      <path
         d="m 224.88274,17.869823 34.40601,0 0,91.589067 -43.93652,0 0,-77.99279 9.53051,-13.596277 z m 9.44307,26.318195 5.94564,-8.612432 0,15.651019 -5.94564,0 0,-7.038587 z m 5.94564,49.095238 15.95704,0 0,-72.571767 -29.64076,0 -8.26268,11.847559 0,60.724208 16.00076,0 0,-27.323708 5.94564,0 0,27.323708 z"
         style="font-style:normal;font-variant:normal;font-weight:normal;font-stretch:normal;font-family:Blockt;-inkscape-font-specification:Blockt;stroke:#ffffff;stroke-width:0;stroke-linejoin:round;stroke-miterlimit:4;stroke-dasharray:none;stroke-opacity:1"
         id="path4758"
         inkscape:connector-curvature="0" />
      <path
         d="m 287.79283,66.003266 0,12.634483 -5.94564,0 0,-12.634483 5.94564,0 z m 5.50846,27.27999 10.40487,-14.776661 0,-22.514735 -6.86372,0 6.86372,-9.880253 0,-13.552559 -8.26269,-11.847559 -29.64076,0 0,72.571767 27.49858,0 z m -11.4541,-41.794343 0,-15.913327 5.94564,0 0,7.432048 -5.94564,8.481279 z m -19.10474,57.969977 0,-91.589067 34.40602,0 9.53051,13.596277 0,64.396514 -9.4868,13.596276 -34.44973,0 z"
         style="font-style:normal;font-variant:normal;font-weight:normal;font-stretch:normal;font-family:Blockt;-inkscape-font-specification:Blockt;stroke:#ffffff;stroke-width:0;stroke-linejoin:round;stroke-miterlimit:4;stroke-dasharray:none;stroke-opacity:1"
         id="path4760"
         inkscape:connector-curvature="0" />
    </g>
  </g>
</svg>
